# xmcd
#
# Track frame offsets:
#	150
#	22630
#	45774
#	102050
#	123167
#	152891
#	179127
#	203907
#
# Disc length: 3044 seconds
#
# Revision: 1
# Processed by: cddbd v1.5.1PL0 Copyright (c) Steve Scherf et al.
# Submitted via: audiograbber 1.83.01
#
DISCID=580be208
DTITLE=Cybertribe - Eons of Dignity
DYEAR=2004
DGENRE=New Age
TTITLE0=To the Moon
TTITLE1=Corridor of Dreams
TTITLE2=Poseidon's Gate
TTITLE3=Autumn Spirit
TTITLE4=Passage to India
TTITLE5=Forces of Nature
TTITLE6=Fairie Mountains
TTITLE7=Cascade of Light
EXTD=
EXTT0=
EXTT1=
EXTT2=
EXTT3=
EXTT4=
EXTT5=
EXTT6=
EXTT7=
PLAYORDER=
